<svg width="19" height="16" viewBox="0 0 19 16" fill="none" xmlns="http://www.w3.org/2000/svg">
<path d="M0 7.54888C0 7.12578 0.314411 6.77611 0.722339 6.72077L0.835744 6.71314L15.527 6.71381L10.2195 1.42797C9.89242 1.10229 9.89128 0.573131 10.217 0.246051C10.513 -0.0512951 10.9773 -0.0792693 11.305 0.162786L11.3989 0.243505L18.1405 6.9562C18.1837 6.99913 18.2211 7.04559 18.2529 7.09466C18.2619 7.10943 18.271 7.12453 18.2797 7.13995C18.2876 7.15316 18.2948 7.16688 18.3016 7.18074C18.3111 7.20093 18.3203 7.22177 18.3286 7.24305C18.3354 7.25945 18.3411 7.2754 18.3463 7.29148C18.3525 7.31142 18.3584 7.33267 18.3636 7.35424C18.3674 7.3693 18.3704 7.3838 18.3731 7.39835C18.3768 7.42 18.38 7.44241 18.3822 7.46508C18.3842 7.48238 18.3853 7.49951 18.386 7.51666C18.3862 7.52706 18.3864 7.53795 18.3864 7.54888L18.386 7.58126C18.3853 7.59766 18.3842 7.61405 18.3826 7.6304L18.3864 7.54888C18.3864 7.60162 18.3815 7.65322 18.3721 7.70325C18.37 7.7152 18.3674 7.72746 18.3645 7.73968C18.3586 7.76484 18.3517 7.78907 18.3438 7.81282C18.34 7.82462 18.3354 7.83723 18.3306 7.84974C18.3209 7.87489 18.3102 7.89886 18.2986 7.92221C18.2931 7.93319 18.2871 7.94469 18.2807 7.95607C18.2703 7.97463 18.2595 7.99227 18.2481 8.00946C18.2401 8.02163 18.2312 8.0343 18.2219 8.04676L18.2147 8.0564C18.1922 8.08581 18.1677 8.11369 18.1416 8.13984L18.1406 8.14062L11.3989 14.8544C11.0719 15.1801 10.5427 15.179 10.217 14.852C9.92091 14.5547 9.8949 14.0903 10.1383 13.7636L10.2194 13.6701L15.5248 8.38529L0.835744 8.38463C0.374175 8.38463 0 8.01045 0 7.54888Z" fill="white" fill-opacity="0.15"/>
</svg>
