<svg width="23" height="24" viewBox="0 0 23 24" fill="none" xmlns="http://www.w3.org/2000/svg">
<path fill-rule="evenodd" clip-rule="evenodd" d="M20.9658 9.58488C21.4178 9.58488 21.7827 9.95081 21.7827 10.4017C21.7827 15.4029 17.9441 19.5201 13.0703 19.9377L13.07 22.5984C13.07 23.0493 12.7041 23.4152 12.2532 23.4152C11.8023 23.4152 11.4364 23.0493 11.4364 22.5984L11.4371 19.9378C6.56291 19.5207 2.72375 15.4033 2.72375 10.4017C2.72375 9.95081 3.08969 9.58488 3.54056 9.58488C3.99253 9.58488 4.35737 9.95081 4.35737 10.4017C4.35737 14.7776 7.89906 18.3389 12.2532 18.3389C16.6073 18.3389 20.149 14.7776 20.149 10.4017C20.149 9.95081 20.515 9.58488 20.9658 9.58488ZM12.2532 0C15.1425 0 17.4939 2.36004 17.4939 5.26134V10.367C17.4939 13.2672 15.1425 15.6272 12.2532 15.6272C9.36388 15.6272 7.01255 13.2672 7.01255 10.367V5.26134C7.01255 2.36004 9.36388 0 12.2532 0ZM12.2532 1.63362C10.2645 1.63362 8.64617 3.2607 8.64617 5.26134V10.367C8.64617 12.3654 10.2645 13.9936 12.2532 13.9936C14.2419 13.9936 15.8602 12.3654 15.8602 10.367V5.26134C15.8602 3.2607 14.2419 1.63362 12.2532 1.63362Z" fill="white"/>
<rect y="20.732" width="29.4052" height="1.63362" rx="0.81681" transform="rotate(-41.9133 0 20.732)" fill="white"/>
</svg>
