<svg width="22" height="23" viewBox="0 0 22 23" fill="none" xmlns="http://www.w3.org/2000/svg">
<path d="M6.24176 1.19703C6.59589 1.40067 6.93065 1.67555 7.35444 2.09213L7.54183 2.27954L9.1244 3.92058C9.94389 4.81479 10.1698 5.67479 9.96026 6.66166L9.91261 6.86077L9.87339 7.00262L9.82987 7.14366L9.61831 7.76437C9.16549 9.15637 9.35454 9.94174 10.9656 11.5524C12.5765 13.1629 13.3615 13.3516 14.7525 12.8979L14.9224 12.8404L15.1896 12.7475L15.5128 12.6426L15.6542 12.6033C16.7261 12.3174 17.6413 12.5153 18.5959 13.3897L18.7754 13.5616L20.0505 14.7933L20.4259 15.1624C20.842 15.5868 21.1171 15.923 21.3202 16.2785C22.0965 17.6365 21.6223 18.9119 19.7136 20.8664L19.5036 21.0784L19.3054 21.2792C18.9943 21.579 18.7037 21.7938 18.2768 21.9965C17.5601 22.3367 16.7135 22.465 15.7297 22.3282C13.3055 21.9911 10.2309 20.0783 6.33507 16.1835C6.12364 15.9721 5.91817 15.7634 5.71857 15.5575L5.42355 15.2506L4.85962 14.6487C-0.331963 9.00824 -0.873011 5.50517 1.16317 3.28649L1.27471 3.16886L1.415 3.0295L1.49122 2.94984C3.51614 0.92474 4.83479 0.387967 6.24176 1.19703ZM3.64539 3.09628L3.47896 3.23607L3.17454 3.50803L3.09397 3.58296L3.01154 3.66072L2.66246 4.00072L2.63101 4.04002L2.39435 4.27778C1.82246 4.86192 1.55157 5.57484 1.78501 6.80091C2.16806 8.8128 3.92139 11.542 7.44924 15.069C11.1251 18.7439 13.9258 20.4863 15.9468 20.7674C17.0464 20.9203 17.6432 20.6819 18.2161 20.139L18.3387 20.018L18.806 19.5464C18.9704 19.3744 19.1168 19.2145 19.2465 19.0652L19.3706 18.9193L19.5863 18.6476C20.1375 17.9134 20.1878 17.4729 19.9521 17.0605C19.8803 16.935 19.7825 16.7998 19.649 16.6431L19.542 16.5213L19.2843 16.2492L19.1319 16.0966L17.5232 14.5432C17.0304 14.0888 16.6806 13.9918 16.1961 14.0934L16.0604 14.126L15.8994 14.1723L15.233 14.3985C13.2998 15.0228 11.9052 14.7201 9.85143 12.6669C7.79772 10.6137 7.49435 9.21906 8.11735 7.28498L8.18761 7.07564L8.23333 6.94425L8.35975 6.56333L8.4219 6.32054C8.53211 5.79213 8.40628 5.4237 7.83826 4.85558L7.80116 4.81833L7.76028 4.77699L6.26629 3.23234C5.92401 2.8949 5.67538 2.68919 5.45618 2.56315C4.99984 2.30073 4.50927 2.38969 3.64539 3.09628ZM15.3774 2.31246L15.4657 2.38875L18.0597 4.98269L20.6549 2.38875C20.9626 2.08105 21.4615 2.08105 21.7692 2.38875C22.049 2.66849 22.0744 3.10623 21.8455 3.4147L21.7692 3.50307L19.1744 6.09736L21.7692 8.69227C22.077 8.99998 22.077 9.49887 21.7692 9.80658C21.4895 10.0863 21.0518 10.1117 20.7433 9.88287L20.6549 9.80658L18.0597 7.21098L15.4657 9.80658C15.158 10.1143 14.6591 10.1143 14.3514 9.80658C14.0717 9.52685 14.0463 9.0891 14.2751 8.78064L14.3514 8.69227L16.9461 6.09736L14.3514 3.50307C14.0437 3.19536 14.0437 2.69646 14.3514 2.38875C14.6312 2.10902 15.0689 2.08359 15.3774 2.31246Z" fill="white"/>
</svg>
