<svg width="22" height="22" viewBox="0 0 22 22" fill="none" xmlns="http://www.w3.org/2000/svg">
<path d="M21.3789 0.640181C20.8287 0.0754579 20.0144 -0.134929 19.255 0.0865309L1.5488 5.23548C0.747668 5.45804 0.179836 6.09696 0.0268732 6.90861C-0.129391 7.73465 0.416433 8.78327 1.12952 9.22176L6.66589 12.6245C7.23372 12.9733 7.96662 12.8858 8.43652 12.4119L14.7762 6.03273C15.0953 5.70054 15.6236 5.70054 15.9427 6.03273C16.2618 6.35385 16.2618 6.87428 15.9427 7.20647L9.59199 13.5867C9.121 14.0596 9.03296 14.7959 9.3796 15.3673L12.7624 20.9591C13.1585 21.6235 13.8408 22 14.5891 22C14.6772 22 14.7762 22 14.8642 21.9889C15.7226 21.8782 16.4049 21.2913 16.658 20.4609L21.9071 2.77727C22.1382 2.02431 21.9291 1.2049 21.3789 0.640181Z" fill="white"/>
</svg>
